<?xml version="1.0" encoding="iso-8859-1"?>
<!-- Generator: Adobe Illustrator 19.0.0, SVG Export Plug-In . SVG Version: 6.00 Build 0)  -->
<svg version="1.1" id="Layer_1" xmlns="http://www.w3.org/2000/svg" xmlns:xlink="http://www.w3.org/1999/xlink" x="0px" y="0px"
	 viewBox="0 0 512 512" style="enable-background:new 0 0 512 512;" xml:space="preserve">
<g>
	<g>
		<path fill="#eee" d="M512,266.571v-53.855c0-27.284-22.145-49.482-49.366-49.482h-14.831c-3.683-9.309-8.022-18.365-13.043-27.063
			c-8.981-15.602-20.025-30.022-32.823-42.858C362.972,54.212,311.143,32.677,256,32.677c-36.871,0-73.061,9.875-104.657,28.556
			c-30.659,18.127-56.282,44.038-74.098,74.928c-5.024,8.703-9.364,17.762-13.048,27.074H49.366C22.145,163.235,0,185.432,0,212.716
			v53.855c0,27.284,22.145,49.483,49.366,49.483h0.259v74.227H11.13C4.983,390.28,0,395.263,0,401.41v66.783
			c0,6.147,4.983,11.13,11.13,11.13h44.522c6.147,0,11.13-4.983,11.13-11.13s-4.983-11.13-11.13-11.13H22.261v-44.522h38.495
			h390.489h38.495v44.522H122.435c-6.147,0-11.13,4.983-11.13,11.13s4.983,11.13,11.13,11.13H500.87
			c6.147,0,11.13-4.983,11.13-11.13V401.41c0-6.147-4.983-11.13-11.13-11.13h-38.495v-74.227h0.259v0
			C489.855,316.053,512,293.856,512,266.571z M49.625,239.644v54.148h-0.259c-14.946,0-27.105-12.212-27.105-27.222v-53.855
			c0-15.009,12.159-27.221,27.105-27.221h7.412C52.026,203.084,49.625,221.236,49.625,239.644z M440.116,304.922v85.357H71.886
			v-85.356v-65.279c0-1.834,0.036-3.666,0.09-5.497c0.011-0.363,0.021-0.727,0.034-1.09c0.137-3.862,0.387-7.713,0.764-11.548
			c0.003-0.033,0.007-0.068,0.01-0.101c1.376-13.96,4.328-27.69,8.773-40.913c0.073-0.218,0.148-0.436,0.223-0.653
			c3.841-11.284,8.769-22.195,14.748-32.553c32.852-56.964,93.959-92.35,159.472-92.35c49.183,0,95.412,19.209,130.173,54.092
			c11.428,11.462,21.284,24.33,29.303,38.261c5.976,10.351,10.901,21.256,14.741,32.534c0.078,0.227,0.156,0.454,0.233,0.681
			c4.443,13.219,7.394,26.945,8.769,40.901c0.003,0.033,0.007,0.068,0.01,0.101c0.376,3.834,0.627,7.686,0.764,11.548
			c0.012,0.364,0.023,0.727,0.034,1.09c0.055,1.831,0.09,3.663,0.09,5.497V304.922z M462.375,293.792v-54.148
			c0-18.407-2.402-36.56-7.152-54.148h7.412c14.946,0,27.105,12.211,27.105,27.221v53.855c0,15.009-12.159,27.222-27.105,27.222
			H462.375z"/>
	</g>
</g>
<g>
	<g>
		<path fill="#eee" d="M233.517,335.382c-0.134-0.701-0.356-1.402-0.634-2.081c-0.278-0.668-0.623-1.313-1.024-1.914
			c-0.401-0.612-0.868-1.18-1.38-1.692c-0.512-0.512-1.08-0.979-1.692-1.391c-0.601-0.401-1.247-0.746-1.926-1.024
			c-0.668-0.278-1.369-0.49-2.081-0.634c-1.436-0.289-2.905-0.289-4.341,0c-0.712,0.145-1.414,0.356-2.081,0.634
			c-0.679,0.278-1.325,0.623-1.926,1.024c-0.612,0.412-1.18,0.879-1.692,1.391c-0.512,0.512-0.979,1.08-1.38,1.692
			c-0.401,0.601-0.746,1.247-1.024,1.914c-0.278,0.679-0.501,1.38-0.634,2.081c-0.145,0.723-0.223,1.458-0.223,2.182
			c0,0.723,0.078,1.458,0.223,2.17c0.134,0.712,0.356,1.414,0.634,2.081c0.278,0.679,0.623,1.325,1.024,1.926
			c0.401,0.612,0.868,1.18,1.38,1.692c0.512,0.512,1.08,0.979,1.692,1.38c0.601,0.401,1.247,0.746,1.926,1.024
			c0.668,0.278,1.369,0.49,2.081,0.634s1.447,0.223,2.17,0.223s1.458-0.078,2.17-0.223s1.414-0.356,2.081-0.634
			c0.679-0.278,1.325-0.623,1.926-1.024c0.612-0.401,1.18-0.868,1.692-1.38c0.512-0.512,0.979-1.08,1.38-1.692
			c0.401-0.601,0.746-1.247,1.024-1.926c0.278-0.668,0.501-1.369,0.634-2.081c0.145-0.712,0.223-1.447,0.223-2.17
			S233.661,336.106,233.517,335.382z"/>
	</g>
</g>
<g>
	<g>
		<path fill="#eee" d="M356.736,150.159c-24.981-8.926-62.737-19.564-100.736-19.564s-75.755,10.638-100.736,19.564
			c-24.258,8.666-40.557,31.832-40.557,57.644v79.701c0,33.74,27.382,61.188,61.037,61.188h13.473c6.147,0,11.13-4.983,11.13-11.13
			c0-6.147-4.983-11.13-11.13-11.13h-13.473c-21.382,0-38.776-17.463-38.776-38.928v-79.701c0-16.431,10.362-31.172,25.786-36.682
			c23.325-8.332,58.436-18.266,93.247-18.266c34.812,0,69.923,9.933,93.247,18.266c15.422,5.51,25.786,20.251,25.786,36.681v79.701
			c0,21.465-17.395,38.928-38.776,38.928H256c-6.147,0-11.13,4.983-11.13,11.13c0,6.147,4.983,11.13,11.13,11.13h80.256
			c33.656,0,61.037-27.449,61.037-61.188v-79.701C397.293,181.989,380.995,158.824,356.736,150.159z"/>
	</g>
</g>
<g>
	<g>
		<path fill="#eee" d="M96.913,460.321c-2.582-2.582-6.422-3.773-10.04-3.039c-0.712,0.145-1.414,0.356-2.081,0.634
			c-0.679,0.278-1.325,0.623-1.926,1.024c-0.612,0.401-1.18,0.868-1.692,1.38c-0.512,0.512-0.979,1.08-1.38,1.692
			c-0.401,0.601-0.746,1.247-1.024,1.926c-0.278,0.668-0.501,1.369-0.634,2.081c-0.145,0.712-0.223,1.447-0.223,2.17
			c0,0.723,0.078,1.458,0.223,2.182c0.134,0.701,0.356,1.402,0.634,2.081c0.278,0.668,0.623,1.313,1.024,1.914
			c0.401,0.612,0.868,1.18,1.38,1.692c0.512,0.512,1.08,0.979,1.692,1.391c0.601,0.401,1.247,0.746,1.926,1.024
			c0.668,0.278,1.369,0.49,2.081,0.634s1.447,0.211,2.17,0.211c0.723,0,1.458-0.067,2.17-0.211s1.414-0.356,2.093-0.634
			c0.668-0.278,1.313-0.623,1.914-1.024c0.612-0.412,1.18-0.879,1.692-1.391c0.512-0.512,0.979-1.08,1.38-1.692
			c0.401-0.601,0.746-1.247,1.024-1.914c0.278-0.679,0.501-1.38,0.634-2.081c0.145-0.724,0.223-1.458,0.223-2.182
			C100.174,465.263,98.983,462.392,96.913,460.321z"/>
	</g>
</g>
<g>
</g>
<g>
</g>
<g>
</g>
<g>
</g>
<g>
</g>
<g>
</g>
<g>
</g>
<g>
</g>
<g>
</g>
<g>
</g>
<g>
</g>
<g>
</g>
<g>
</g>
<g>
</g>
<g>
</g>
</svg>
