<svg version="1.1" id="Uploaded to svgrepo.com" xmlns="http://www.w3.org/2000/svg" xmlns:xlink="http://www.w3.org/1999/xlink" x="0px" y="0px"
	 width="32px" height="32px" viewBox="0 0 32 32" style="enable-background:new 0 0 32 32;" xml:space="preserve">
<style type="text/css">
	.linesandangles_een{fill:#eee;}
</style>
<path class="linesandangles_een" d="M23.062,22.963L25.077,28h-2.154l-1.812-4.53C21.783,23.328,22.433,23.157,23.062,22.963z
	 M17.173,23.963L17.98,28h2.04l-0.84-4.199C18.526,23.884,17.853,23.932,17.173,23.963z M11.98,28h2.04l0.807-4.037
	c-0.681-0.031-1.353-0.079-2.008-0.162L11.98,28z M6.923,28h2.154l1.812-4.53c-0.673-0.142-1.322-0.313-1.951-0.507L6.923,28z
	 M30,14c0,4.418-6.268,8-14,8S2,18.418,2,14c0-3.174,3.24-5.911,7.93-7.203C11.398,5.087,13.57,4,16,4
	c2.433,0,4.608,1.09,6.075,2.803C26.759,8.097,30,10.828,30,14z M10,11.948C10.26,12.582,12.541,14,16,14
	c3.459,0,5.74-1.418,6-2.052C21.972,8.663,19.291,6,16,6C12.709,6,10.028,8.663,10,11.948z M28,14c0-1.644-1.665-3.391-4.431-4.574
	C23.844,10.234,24,11.098,24,12c0,1.958-3.582,4-8,4s-8-2.042-8-4c0-0.904,0.157-1.769,0.433-2.579C5.663,10.605,4,12.355,4,14
	c0,2.838,4.928,6,12,6S28,16.838,28,14z"/>
</svg>