<?xml version="1.0" encoding="iso-8859-1"?>
<!-- Generator: Adobe Illustrator 19.0.0, SVG Export Plug-In . SVG Version: 6.00 Build 0)  -->
<svg version="1.1" id="Layer_1" xmlns="http://www.w3.org/2000/svg" xmlns:xlink="http://www.w3.org/1999/xlink" x="0px" y="0px"
	 viewBox="0 0 512 512" style="enable-background:new 0 0 512 512;" xml:space="preserve">
<g>
	<g>
		<path fill="#eee" d="M447.147,0H64.853c-9.425,0-17.067,7.641-17.067,17.067v477.867c0,9.425,7.641,17.067,17.067,17.067h382.293
			c9.425,0,17.067-7.641,17.067-17.067V17.067C464.213,7.641,456.572,0,447.147,0z M430.08,477.867H81.92V34.133h348.16V477.867z"/>
	</g>
</g>
<g>
	<g>
		<path fill="#eee" d="M381.156,336.782H130.844c-9.425,0-17.067,7.641-17.067,17.067s7.641,17.067,17.067,17.067h250.311
			c9.425,0,17.067-7.641,17.067-17.067S390.581,336.782,381.156,336.782z"/>
	</g>
</g>
<g>
	<g>
		<path fill="#eee" d="M381.156,403.911H130.844c-9.425,0-17.067,7.641-17.067,17.067s7.641,17.067,17.067,17.067h250.311
			c9.425,0,17.067-7.641,17.067-17.067S390.581,403.911,381.156,403.911z"/>
	</g>
</g>
<g>
	<g>
		<path fill="#eee" d="M297.036,184.889c40.111-37.632,13.419-105.244-41.605-105.244c-54.989,0-81.733,67.596-41.605,105.244
			c-11.845,11.113-19.266,26.888-19.266,44.373v43.804c0,9.425,7.641,17.067,17.067,17.067h87.609
			c9.425,0,17.067-7.641,17.067-17.067v-43.804C316.302,211.777,308.882,196.002,297.036,184.889z M255.431,113.778
			c35.335,0,35.335,53.476,0,53.476C220.096,167.253,220.096,113.778,255.431,113.778z M282.169,256h-53.476v-26.738
			c0-14.743,11.994-26.738,26.738-26.738c14.743,0,26.738,11.994,26.738,26.738V256z"/>
	</g>
</g>
<g>
</g>
<g>
</g>
<g>
</g>
<g>
</g>
<g>
</g>
<g>
</g>
<g>
</g>
<g>
</g>
<g>
</g>
<g>
</g>
<g>
</g>
<g>
</g>
<g>
</g>
<g>
</g>
<g>
</g>
</svg>
