<?xml version="1.0" encoding="iso-8859-1"?>
<!-- Generator: Adobe Illustrator 19.0.0, SVG Export Plug-In . SVG Version: 6.00 Build 0)  -->
<svg version="1.1" id="Layer_1" xmlns="http://www.w3.org/2000/svg" xmlns:xlink="http://www.w3.org/1999/xlink" x="0px" y="0px"
	 viewBox="0 0 512 512" style="enable-background:new 0 0 512 512;" xml:space="preserve">
<g>
	<polygon style="fill:#FFF;" points="340.442,176.825 340.442,229.605 277.108,229.605 277.108,203.22 277.108,176.825 	"/>
	<polygon style="fill:#FFF;" points="234.882,203.22 234.882,229.605 171.548,229.605 171.548,176.825 234.882,176.825 	"/>
</g>
<path style=" fill:transparent" d="M256,7.931c131.944,0,116.114,142.509,116.114,142.509c-69.277,0-121.391-36.949-121.391-36.949
	c0,31.672-110.837,36.949-110.837,36.949S124.045,7.931,256,7.931z"/>
<path style="fill:transparent" d="M256,382.668c31.006,0,52.78-26.385,52.78-26.385c11.548,12.859,47.503,31.662,47.503,31.662
	c100.008,31.672,100.283,89.729,100.283,89.729s0,11.611,0,26.395H55.434c0-14.784,0-26.395,0-26.395s0.994-57.729,100.283-89.729
	c0,0,35.955-18.802,47.503-31.662C203.22,356.283,224.994,382.668,256,382.668z"/>
<g>
	<path style="fill:transparent;" d="M308.78,322.728v33.555c0,0-21.774,26.385-52.78,26.385s-52.78-26.385-52.78-26.385v-33.555
		c15.387,7.974,33.142,12.436,52.78,12.436S293.393,330.702,308.78,322.728z"/>
	<path style="transparent;" d="M372.114,176.825c17.491,0,31.672,6.535,31.672,21.118c0,13.504-16.709,29.166-33.079,31.387
		c0.931-6.779,1.406-13.737,1.406-20.833V176.825z"/>
	<path style="fill:transparent;" d="M139.886,208.497c0,7.096,0.476,14.054,1.406,20.833c-16.37-2.221-33.079-17.882-33.079-31.387
		c0-14.583,14.181-21.118,31.672-21.118V208.497z"/>
	<path style="fill:transparent;" d="M234.882,176.825h-63.334v52.78h63.334V176.825z M277.108,229.605h63.334v-52.78h-63.334
		L277.108,229.605L277.108,229.605z M370.707,229.33c-5.636,41.285-28.045,75.844-61.927,93.399
		c-15.387,7.974-33.142,12.436-52.78,12.436s-37.393-4.463-52.78-12.436c-33.893-17.555-56.291-52.103-61.927-93.399
		c-0.931-6.779-1.406-13.737-1.406-20.833v-31.672V150.44c0,0,110.837-5.277,110.837-36.949c0,0,52.114,36.949,121.391,36.949
		v26.385v31.672C372.114,215.593,371.638,222.551,370.707,229.33z"/>
</g>
<g>
	<path style="fill:#eee;" d="M359.353,380.598c-9.421-4.971-32.608-18.128-42.642-27.56v-25.616
		c32.116-18.387,54.037-51.277,60.987-91.491c18.189-5.216,34.019-22.287,34.019-37.988c0-15.889-11.938-26.433-31.672-28.62
		v-18.471c0.668-6.672,6.065-71.81-32.303-114.677C326.256,12.172,295.39,0,256,0c-39.394,0-70.263,12.173-91.749,36.179
		c-38.367,42.869-32.964,108.006-32.296,114.674v18.469c-19.734,2.187-31.672,12.731-31.672,28.62
		c0,15.707,15.842,32.786,34.019,37.992c6.952,40.22,28.872,73.107,60.987,91.489v25.616c-10.039,9.438-33.249,22.604-42.66,27.569
		c-102.846,33.403-105.081,94.346-105.125,96.93L47.503,512h416.994v-34.365C464.484,475.035,463.01,413.685,359.353,380.598z
		 M256,374.736c-22.11,0-39.398-15.878-44.849-21.528v-18.234c13.937,5.386,28.966,8.121,44.849,8.121
		c15.882,0,30.911-2.736,44.849-8.121v18.25C295.423,358.89,278.254,374.736,256,374.736z M395.855,197.943
		c0,6.462-6.985,15.259-16.108,20.128c0.186-3.179,0.297-32.805,0.297-32.805C394.134,187.248,395.855,194.535,395.855,197.943z
		 M176.129,46.694C194.475,26.236,221.348,15.863,256,15.863c34.648,0,61.518,10.372,79.865,30.828
		c27.914,31.124,29.364,77.881,28.792,95.662c-62.093-2.481-108.869-34.996-109.347-35.332l-12.519-8.876v15.345
		c0,6.385-12.829,15.658-48.833,22.534c-18.172,3.471-36.553,5.21-46.626,5.977C146.791,123.955,148.401,77.612,176.129,46.694z
		 M116.145,197.943c0-3.408,1.722-10.696,15.81-12.676c0,0,0.112,29.629,0.298,32.809
		C123.136,213.209,116.145,204.409,116.145,197.943z M149.15,228.251c-0.884-6.442-1.332-13.089-1.332-19.754v-50.615
		c10.25-0.756,29.488-2.537,48.972-6.248c31.433-5.988,50.669-14.567,58.206-26.046c17.234,10.181,57.938,30.665,109.187,32.631
		v50.278c0,6.665-0.448,13.311-1.333,19.759c-5.371,39.341-26.408,71.208-57.718,87.43c-14.785,7.662-31.315,11.547-49.13,11.547
		s-34.347-3.885-49.133-11.547C175.558,299.47,154.521,267.603,149.15,228.251z M448.635,496.137H63.366v-18.366
		c0.065-1.665,3.028-52.707,94.785-82.279c0,0,30.018-15.722,44.796-28.077c8.132,7.65,24.215,20.047,45.123,22.675v92.859h15.863
		v-92.859c20.908-2.628,36.99-15.025,45.123-22.675c14.779,12.355,44.835,28.089,44.835,28.089
		c26.88,8.513,63.057,24.548,82.761,52.6c11.315,16.108,11.96,28.994,11.985,29.649V496.137z"/>
	<path style="fill:transparent;" d="M242.813,211.151h26.364v26.385h79.196v-68.642h-79.196v26.395h-26.364v-26.395h-79.196v68.642
		h79.196L242.813,211.151L242.813,211.151z M285.039,184.756h47.471v36.917h-47.471L285.039,184.756L285.039,184.756z
		 M226.95,221.673h-47.471v-36.917h47.471V221.673z"/>
	<polygon style="fill:transparent;" points="263.931,245.446 248.069,245.446 248.069,279.762 277.108,279.762 277.108,263.9 
		263.931,263.9 	"/>
	<rect x="314.057" y="448.634" style="fill:#FFF;" width="84.452" height="15.863"/>
	<rect x="213.774" y="401.132" style="fill:#FFF;" width="21.108" height="15.863"/>
	<rect x="213.774" y="432.793" style="fill:#FFF;" width="21.108" height="15.863"/>
	<rect x="213.774" y="464.465" style="fill:#FFF;" width="21.108" height="15.863"/>
</g>
<g>
</g>
<g>
</g>
<g>
</g>
<g>
</g>
<g>
</g>
<g>
</g>
<g>
</g>
<g>
</g>
<g>
</g>
<g>
</g>
<g>
</g>
<g>
</g>
<g>
</g>
<g>
</g>
<g>
</g>
</svg>
