<?xml version="1.0" encoding="utf-8"?>

<!-- Uploaded to: SVG Repo, www.svgrepo.com, Generator: SVG Repo Mixer Tools -->
<svg width="800px" height="800px" viewBox="0 0 129.103 129.103" xmlns="http://www.w3.org/2000/svg" xmlns:xlink="http://www.w3.org/1999/xlink">
  <defs>
    <clipPath id="clip-path">
      <circle id="Ellipse_54" data-name="Ellipse 54" cx="64.551" cy="64.551" r="64.551" transform="translate(331.399 204.494)" fill="none"/>
    </clipPath>
  </defs>
  <g id="Jupiter" transform="translate(-331.399 -204.494)">
    <g id="Group_72" data-name="Group 72">
      <circle id="Ellipse_53" data-name="Ellipse 53" cx="64.551" cy="64.551" r="64.551" transform="translate(331.399 204.494)" fill="#f4d0b1"/>
      <g id="Group_71" data-name="Group 71">
        <g id="Group_70" data-name="Group 70" clip-path="url(#clip-path)">
          <path id="Path_80" data-name="Path 80" d="M330.159,214.5A1021.437,1021.437,0,0,1,540.3,228.515" fill="none" stroke="#dcb98e" stroke-miterlimit="10" stroke-width="6.236" opacity="0.5"/>
          <path id="Path_81" data-name="Path 81" d="M323.839,320.642a1021.438,1021.438,0,0,1,210.146,14.014" fill="none" stroke="#dcb98e" stroke-miterlimit="10" stroke-width="6.236" opacity="0.5"/>
          <path id="Path_82" data-name="Path 82" d="M306.743,333.544a1021.431,1021.431,0,0,1,210.51,6.564" fill="none" stroke="#da5423" stroke-miterlimit="10" stroke-width="10.834"/>
          <path id="Path_83" data-name="Path 83" d="M313.462,286.841l31.253,3.735a420.454,420.454,0,0,0,99.566,0l31.254-3.734" fill="none" stroke="#ef8f4d" stroke-miterlimit="10" stroke-width="9.931"/>
          <path id="Path_84" data-name="Path 84" d="M475.535,248.952l-31.254-3.734a420.4,420.4,0,0,0-99.566,0l-31.253,3.734" fill="none" stroke="#dcb98e" stroke-miterlimit="10" stroke-width="9.931" opacity="0.3"/>
          <path id="Path_85" data-name="Path 85" d="M475.535,260.237,444.281,256.5a420.508,420.508,0,0,0-99.566,0l-31.253,3.734" fill="none" stroke="#dcb98e" stroke-miterlimit="10" stroke-width="3.611" opacity="0.3"/>
          <path id="Path_86" data-name="Path 86" d="M475.535,239.37l-31.254-3.734a420.4,420.4,0,0,0-99.566,0l-31.253,3.734" fill="none" stroke="#ef8f4d" stroke-miterlimit="10" stroke-width="1.806"/>
          <path id="Path_87" data-name="Path 87" d="M475.535,222.818l-31.254-3.734a420.4,420.4,0,0,0-99.566,0l-31.253,3.734" fill="none" stroke="#ef8f4d" stroke-miterlimit="10" stroke-width="6.32"/>
          <path id="Path_88" data-name="Path 88" d="M313.462,276.043l31.253,3.734a420.4,420.4,0,0,0,99.566,0l31.254-3.734" fill="none" stroke="#ef8f4d" stroke-miterlimit="10" stroke-width="1.806"/>
        </g>
      </g>
      <circle id="Ellipse_55" data-name="Ellipse 55" cx="4.057" cy="4.057" r="4.057" transform="translate(370.928 274.67)" fill="transparent"/>
      <circle id="Ellipse_56" data-name="Ellipse 56" cx="4.057" cy="4.057" r="4.057" transform="translate(412.858 274.67)" fill="transparent"/>
      <circle id="Ellipse_57" data-name="Ellipse 57" cx="0.748" cy="0.748" r="0.748" transform="translate(371.961 276.912)" fill="transparent"/>
      <circle id="Ellipse_58" data-name="Ellipse 58" cx="0.748" cy="0.748" r="0.748" transform="translate(413.891 276.912)" fill="transparent"/>
      <path id="Path_89" data-name="Path 89" d="M395.951,333.6A64.549,64.549,0,0,0,439.23,221.154a64.31,64.31,0,0,1,16.661,43.28c0,35.65-33.6,68.495-69.248,68.495" opacity="0.2" style="mix-blend-mode: darken;isolation: isolate"/>
      <path id="Path_90" data-name="Path 90" d="M460.5,269.045" fill="none"/>
      <path id="Path_91" data-name="Path 91" d="M331.4,269.045" fill="none"/>
      <ellipse id="Ellipse_59" data-name="Ellipse 59" cx="6.342" cy="13.184" rx="6.342" ry="13.184" transform="matrix(0.059, -0.998, 0.998, 0.059, 352.542, 303.227)" fill="#ef8f4d" stroke="#f3cda6" stroke-miterlimit="10" stroke-width="2.349"/>
    </g>
    <path id="Path_92" data-name="Path 92" d="M412.23,308.353s-4.469,2.446-16.279,2.446c-12.729,0-16.28-2.446-16.28-2.446" fill="none" stroke="transparent" stroke-linecap="round" stroke-miterlimit="10" stroke-width="2.709"/>
  </g>
</svg>