<?xml version="1.0" encoding="utf-8"?>

<!-- Uploaded to: SVG Repo, www.svgrepo.com, Generator: SVG Repo Mixer Tools -->
<svg width="800px" height="800px" viewBox="0 -0.13 63.238 63.238" xmlns="http://www.w3.org/2000/svg" xmlns:xlink="http://www.w3.org/1999/xlink">
  <defs>
    <clipPath id="clip-path">
      <circle id="Ellipse_33" data-name="Ellipse 33" cx="31.493" cy="31.493" r="31.493" transform="translate(144.327 59.993)" fill="none"/>
    </clipPath>
  </defs>
  <g id="Mercury" transform="translate(-144.327 -59.993)">
    <g id="Group_39" data-name="Group 39">
      <circle id="Ellipse_26" data-name="Ellipse 26" cx="31.493" cy="31.493" r="31.493" transform="translate(144.327 59.993)" fill="#b17341"/>
      <g id="Group_31" data-name="Group 31">
        <circle id="Ellipse_27" data-name="Ellipse 27" cx="3.215" cy="3.215" r="3.215" transform="translate(170.189 76.833)" fill="#312449" opacity="0.1" style="mix-blend-mode: darken;isolation: isolate"/>
        <path id="Path_31" data-name="Path 31" d="M171.165,80.048a3.207,3.207,0,0,1,2.727-3.166,3.14,3.14,0,0,0-.488-.049,3.215,3.215,0,1,0,0,6.43,3.14,3.14,0,0,0,.488-.05A3.206,3.206,0,0,1,171.165,80.048Z" fill="#312449" opacity="0.1" style="mix-blend-mode: darken;isolation: isolate"/>
      </g>
      <g id="Group_32" data-name="Group 32">
        <circle id="Ellipse_28" data-name="Ellipse 28" cx="1.66" cy="1.66" r="1.66" transform="translate(174.16 68.896)" fill="#312449" opacity="0.1" style="mix-blend-mode: darken;isolation: isolate"/>
        <path id="Path_32" data-name="Path 32" d="M174.663,70.556a1.656,1.656,0,0,1,1.409-1.634,1.618,1.618,0,0,0-.252-.026,1.66,1.66,0,1,0,0,3.32,1.618,1.618,0,0,0,.252-.025A1.656,1.656,0,0,1,174.663,70.556Z" fill="#312449" opacity="0.1" style="mix-blend-mode: darken;isolation: isolate"/>
      </g>
      <g id="Group_33" data-name="Group 33">
        <circle id="Ellipse_29" data-name="Ellipse 29" cx="5.741" cy="5.741" r="5.741" transform="translate(149.998 87.406)" fill="#312449" opacity="0.1" style="mix-blend-mode: darken;isolation: isolate"/>
        <path id="Path_33" data-name="Path 33" d="M151.74,93.146a5.727,5.727,0,0,1,4.87-5.653,5.815,5.815,0,0,0-.872-.087A5.742,5.742,0,1,0,156.61,98.8,5.725,5.725,0,0,1,151.74,93.146Z" fill="#312449" opacity="0.1" style="mix-blend-mode: darken;isolation: isolate"/>
      </g>
      <g id="Group_34" data-name="Group 34">
        <circle id="Ellipse_30" data-name="Ellipse 30" cx="3.706" cy="3.706" r="3.706" transform="translate(189.296 88.469)" fill="#312449" opacity="0.1" style="mix-blend-mode: darken;isolation: isolate"/>
        <path id="Path_34" data-name="Path 34" d="M190.421,92.175a3.7,3.7,0,0,1,3.143-3.65,3.706,3.706,0,1,0,0,7.3A3.7,3.7,0,0,1,190.421,92.175Z" fill="#312449" opacity="0.1" style="mix-blend-mode: darken;isolation: isolate"/>
      </g>
      <g id="Group_38" data-name="Group 38">
        <g id="Group_37" data-name="Group 37" clip-path="url(#clip-path)">
          <g id="Group_35" data-name="Group 35" opacity="0.6">
            <circle id="Ellipse_31" data-name="Ellipse 31" cx="5.741" cy="5.741" r="5.741" transform="translate(151.222 108.613)" fill="#312449" opacity="0.1" style="mix-blend-mode: darken;isolation: isolate"/>
            <path id="Path_35" data-name="Path 35" d="M152.965,114.353a5.727,5.727,0,0,1,4.869-5.653,5.675,5.675,0,0,0-.871-.087,5.741,5.741,0,1,0,0,11.481,5.674,5.674,0,0,0,.871-.088A5.726,5.726,0,0,1,152.965,114.353Z" fill="#312449" opacity="0.1" style="mix-blend-mode: darken;isolation: isolate"/>
          </g>
          <g id="Group_36" data-name="Group 36">
            <circle id="Ellipse_32" data-name="Ellipse 32" cx="5.741" cy="5.741" r="5.741" transform="translate(190.967 105.854)" fill="#312449" opacity="0.1" style="mix-blend-mode: darken;isolation: isolate"/>
            <path id="Path_36" data-name="Path 36" d="M192.71,111.6a5.724,5.724,0,0,1,4.869-5.653,5.742,5.742,0,1,0,0,11.305A5.724,5.724,0,0,1,192.71,111.6Z" fill="#312449" opacity="0.1" style="mix-blend-mode: darken;isolation: isolate"/>
          </g>
        </g>
      </g>
    </g>
    <path id="Path_37" data-name="Path 37" d="M178.861,109.315a7,7,0,0,1-3.041.457c-2.378,0-3.042-.457-3.042-.457" fill="none" stroke="transparent" stroke-linecap="round" stroke-miterlimit="10" stroke-width="1.415"/>
    <g id="Group_41" data-name="Group 41">
      <g id="Group_40" data-name="Group 40">
        <circle id="Ellipse_34" data-name="Ellipse 34" cx="2.095" cy="2.095" r="2.095" transform="translate(166 97.371)" fill="transparent"/>
        <circle id="Ellipse_35" data-name="Ellipse 35" cx="2.095" cy="2.095" r="2.095" transform="translate(181.45 97.371)" fill="transparent"/>
      </g>
    </g>
    <circle id="Ellipse_36" data-name="Ellipse 36" cx="0.475" cy="0.475" r="0.475" transform="translate(167.089 98.709)" fill="transparent"/>
    <circle id="Ellipse_37" data-name="Ellipse 37" cx="0.475" cy="0.475" r="0.475" transform="translate(182.595 98.709)" fill="transparent"/>
    <g id="Group_42" data-name="Group 42">
      <path id="Path_38" data-name="Path 38" d="M176.072,122.979a31.492,31.492,0,0,0,21.115-54.857,31.183,31.183,0,0,1,8.128,21.115c-.085,17.438-16.588,33.522-33.784,33.417" opacity="0.2" style="mix-blend-mode: darken;isolation: isolate"/>
    </g>
  </g>
</svg>