<?xml version="1.0" encoding="iso-8859-1"?>
<!-- Generator: Adobe Illustrator 19.0.0, SVG Export Plug-In . SVG Version: 6.00 Build 0)  -->
<svg version="1.1" id="Layer_1" xmlns="http://www.w3.org/2000/svg" xmlns:xlink="http://www.w3.org/1999/xlink" x="0px" y="0px"
	 viewBox="0 0 321.094 321.094" style="enable-background:new 0 0 321.094 321.094;" xml:space="preserve">
<g>
	<rect x="114.234" y="7.5" style="fill:#FFFFFF;" width="92.625" height="39"/>
	<polygon style="fill:#FFFFFF;" points="206.859,27.407 206.859,46.5 114.234,46.5 114.234,27.407 43.555,27.407 43.555,313.594 
		277.539,313.594 277.539,27.407 	"/>
	<g>
		<g>
			<rect x="74.396" y="94" style="fill:#FFFFFF;" width="35" height="35"/>
			<rect x="134.396" y="94" style="fill:#FFFFFF;" width="112.301" height="35"/>
		</g>
		<g>
			<rect x="74.396" y="163" style="fill:#FFFFFF;" width="35" height="35"/>
			<rect x="134.396" y="163" style="fill:#FFFFFF;" width="112.301" height="35"/>
		</g>
		<g>
			<rect x="74.396" y="232" style="fill:#FFFFFF;" width="35" height="35"/>
			<g>
				<rect x="134.396" y="232" style="fill:#FFFFFF;" width="112.301" height="35"/>
				<g>
					<path style="fill:#000;" d="M277.539,19.907h-63.18V7.5c0-4.142-3.357-7.5-7.5-7.5h-92.625c-4.143,0-7.5,3.358-7.5,7.5
						v12.407h-63.18c-4.143,0-7.5,3.358-7.5,7.5v286.187c0,4.142,3.357,7.5,7.5,7.5h233.984c4.143,0,7.5-3.358,7.5-7.5V27.407
						C285.039,23.265,281.682,19.907,277.539,19.907z M121.734,15h77.625v12.407V39h-77.625V27.407V15z M270.039,306.094H51.055
						V34.907h55.68V46.5c0,4.142,3.357,7.5,7.5,7.5h92.625c4.143,0,7.5-3.358,7.5-7.5V34.907h55.68V306.094z"/>
					<path style="fill:#000;" d="M109.396,86.5h-35c-4.143,0-7.5,3.358-7.5,7.5v35c0,4.142,3.357,7.5,7.5,7.5h35
						c4.143,0,7.5-3.358,7.5-7.5V94C116.896,89.858,113.539,86.5,109.396,86.5z M101.896,121.5h-20v-20h20V121.5z"/>
					<path style="fill:#000;" d="M126.896,94v35c0,4.142,3.357,7.5,7.5,7.5h112.301c4.143,0,7.5-3.358,7.5-7.5V94
						c0-4.142-3.357-7.5-7.5-7.5H134.396C130.254,86.5,126.896,89.858,126.896,94z M141.896,101.5h97.301v20h-97.301V101.5z"/>
					<path style="fill:#000;" d="M109.396,155.5h-35c-4.143,0-7.5,3.358-7.5,7.5v35c0,4.142,3.357,7.5,7.5,7.5h35
						c4.143,0,7.5-3.358,7.5-7.5v-35C116.896,158.858,113.539,155.5,109.396,155.5z M101.896,190.5h-20v-20h20V190.5z"/>
					<path style="fill:#000;" d="M246.697,155.5H134.396c-4.143,0-7.5,3.358-7.5,7.5v35c0,4.142,3.357,7.5,7.5,7.5h112.301
						c4.143,0,7.5-3.358,7.5-7.5v-35C254.197,158.858,250.84,155.5,246.697,155.5z M239.197,190.5h-97.301v-20h97.301V190.5z"/>
					<path style="fill:#000;" d="M109.396,224.5h-35c-4.143,0-7.5,3.358-7.5,7.5v35c0,4.142,3.357,7.5,7.5,7.5h35
						c4.143,0,7.5-3.358,7.5-7.5v-35C116.896,227.858,113.539,224.5,109.396,224.5z M101.896,259.5h-20v-20h20V259.5z"/>
					<path style="fill:#000;" d="M246.697,224.5H134.396c-4.143,0-7.5,3.358-7.5,7.5v35c0,4.142,3.357,7.5,7.5,7.5h112.301
						c4.143,0,7.5-3.358,7.5-7.5v-35C254.197,227.858,250.84,224.5,246.697,224.5z M239.197,259.5h-97.301v-20h97.301V259.5z"/>
				</g>
			</g>
		</g>
	</g>
</g>
<g>
</g>
<g>
</g>
<g>
</g>
<g>
</g>
<g>
</g>
<g>
</g>
<g>
</g>
<g>
</g>
<g>
</g>
<g>
</g>
<g>
</g>
<g>
</g>
<g>
</g>
<g>
</g>
<g>
</g>
</svg>
