<?xml version="1.0" encoding="iso-8859-1"?>
<!-- Generator: Adobe Illustrator 19.0.0, SVG Export Plug-In . SVG Version: 6.00 Build 0)  -->
<svg version="1.1" id="Layer_1" xmlns="http://www.w3.org/2000/svg" xmlns:xlink="http://www.w3.org/1999/xlink" x="0px" y="0px"
	 viewBox="0 0 290.658 290.658" style="enable-background:new 0 0 290.658 290.658;" xml:space="preserve">
<g>
	<g>
		<path style="fill:#FFFF;" d="M14.063,121.892h112.5c7.753,0,14.063-6.309,14.063-14.063v-75c0-7.753-6.309-14.063-14.063-14.063
			H112.5v-4.688c0-7.753-6.309-14.063-14.063-14.063h-56.25c-7.753,0-14.063,6.309-14.063,14.063v4.688H14.063
			C6.309,18.767,0,25.076,0,32.829v75C0,115.582,6.309,121.892,14.063,121.892z M37.5,14.079c0-2.583,2.105-4.688,4.688-4.688h56.25
			c2.583,0,4.688,2.105,4.688,4.688v4.688H37.5V14.079z M14.063,28.142h14.063H37.5h65.625h9.375h14.063
			c2.583,0,4.688,2.105,4.688,4.688v19.734l-52.89,15.614l2.653,8.991l50.236-14.827v45.487c0,2.583-2.105,4.688-4.688,4.688h-112.5
			c-2.583,0-4.688-2.105-4.688-4.688V62.52l50.25,14.677l2.63-9L9.375,52.751V32.829C9.375,30.246,11.48,28.142,14.063,28.142z"/>
		<rect x="150" y="65.642" style="fill:#FFFF;" width="9.375" height="9.375"/>
		<rect x="178.125" y="145.329" style="fill:#FFFF;" width="18.75" height="9.375"/>
		<rect x="196.875" y="65.642" style="fill:#FFFF;" width="18.75" height="9.375"/>
		<rect x="225" y="65.642" style="fill:#FFFF;" width="18.75" height="9.375"/>
		<rect x="206.25" y="145.329" style="fill:#FFFF;" width="18.75" height="9.375"/>
		<rect x="168.75" y="65.642" style="fill:#FFFF;" width="18.75" height="9.375"/>
		<path style="fill:#FFFF;" d="M273.258,74.886c-5.559-4.289-12.136-7.228-19.017-8.498l-1.706,9.22
			c5.428,1.003,10.613,3.323,15.005,6.708L273.258,74.886z"/>
		<path style="fill:#FFFF;" d="M234.375,154.704h11.714c0.019,0,0.042,0,0.061,0c1.852,0,3.713-0.117,5.536-0.347l-1.167-9.3
			c-1.444,0.178-2.916,0.272-4.378,0.272c-0.014,0-0.028,0-0.047,0h-11.719V154.704z"/>
		<path style="fill:#FFFF;" d="M290.607,111.462l-9.37-0.267c-0.159,5.62-1.608,10.955-4.298,15.858l8.217,4.509
			C288.521,125.436,290.41,118.484,290.607,111.462z"/>
		<path style="fill:#FFFF;" d="M258.539,143.065l3.323,8.766c6.539-2.48,12.488-6.534,17.203-11.728l-6.938-6.305
			C268.397,137.904,263.7,141.111,258.539,143.065z"/>
		<path style="fill:#FFFF;" d="M289.683,101.028c-1.43-6.848-4.519-13.355-8.934-18.82l-7.294,5.892
			c3.483,4.313,5.92,9.445,7.045,14.845L289.683,101.028z"/>
		<path style="fill:#FFFF;" d="M9.375,189.861c0-4.542,0.853-8.958,2.531-13.125l-8.695-3.502C1.083,178.526,0,184.114,0,189.861
			c0,1.341,0.061,2.667,0.178,3.98l9.338-0.839C9.422,191.965,9.375,190.92,9.375,189.861z"/>
		<rect x="60.938" y="145.329" style="fill:#FFFF;" width="18.75" height="9.375"/>
		<path style="fill:#FFFF;" d="M21.727,228.115c6.014,3.591,12.891,5.728,19.894,6.183l0.605-9.356
			c-5.522-0.356-10.945-2.044-15.689-4.875L21.727,228.115z"/>
		<rect x="89.063" y="145.329" style="fill:#FFFF;" width="18.75" height="9.375"/>
		<path style="fill:#FFFF;" d="M8.241,164.046l7.636,5.438c3.216-4.509,7.505-8.25,12.403-10.809l-4.341-8.306
			C17.738,153.607,12.305,158.337,8.241,164.046z"/>
		<rect x="117.188" y="145.329" style="fill:#FFFF;" width="18.75" height="9.375"/>
		<path style="fill:#FFFF;" d="M51.563,145.329h-7.031c-3.642,0-7.27,0.441-10.777,1.313l2.259,9.098
			c2.766-0.689,5.634-1.036,8.517-1.036h7.031v-9.375H51.563z"/>
		<path style="fill:#FFFF;" d="M2.325,204.101c2.236,6.619,6.07,12.713,11.095,17.62l6.548-6.708
			c-3.97-3.881-7.003-8.691-8.761-13.913L2.325,204.101z"/>
		<rect x="145.313" y="145.329" style="fill:#FFFF;" width="23.438" height="9.375"/>
		<rect x="51.563" y="225.017" style="fill:#FFFF;" width="9.375" height="9.375"/>
		<path style="fill:#FFFF;" d="M277.5,225.007l-2.47-1.059c-15.127-6.483-30.923-10.561-47.138-12.187l-81.652-33.619H96.403
			l51.563,32.813h-33.727l-13.392-18.75H59.409l21.427,75h47.18L99.37,290.642h46.997l49.481-23.438h70.795
			c4.148,0,8.302-0.98,12.014-2.836c7.645-3.825,12.239-11.508,11.991-20.053S285.352,228.373,277.5,225.007z M128.597,187.517
			h15.788l56.92,23.438h-35.878L128.597,187.517z M274.463,255.982c-2.419,1.209-5.123,1.847-7.823,1.847h-51l20.742-9.825
			l-4.012-8.475l-88.111,41.737H125.63l41.4-33.872l-5.939-7.256l-21.619,17.691H87.91l-16.073-56.25h24.188l13.392,18.75H162.7
			h49.031c20.606,0,40.659,4.116,59.602,12.234l2.47,1.059c4.533,1.945,7.322,6.042,7.467,10.969
			C281.419,249.518,278.874,253.779,274.463,255.982z"/>
		<path style="fill:#F9BA48;" d="M79.688,89.079h-18.75c-2.592,0-4.688-2.095-4.688-4.688V60.954c0-2.592,2.095-4.688,4.688-4.688
			h18.75c2.592,0,4.688,2.095,4.688,4.688v23.437C84.375,86.984,82.28,89.079,79.688,89.079z"/>
	</g>
</g>
<g>
</g>
<g>
</g>
<g>
</g>
<g>
</g>
<g>
</g>
<g>
</g>
<g>
</g>
<g>
</g>
<g>
</g>
<g>
</g>
<g>
</g>
<g>
</g>
<g>
</g>
<g>
</g>
<g>
</g>
</svg>
